<svg role="img" viewBox="0 0 96 96" xmlns="http://www.w3.org/2000/svg" id="Langchain--Streamline-Simple-Icons" height="96" width="96">
  <desc>
    Langchain Streamline Icon: https://streamlinehq.com
  </desc>
  <title>LangChain</title>
  <path d="M24.3952 23.67C10.9436 23.67 0 34.5848 0 48s10.944 24.33 24.3952 24.33h47.2096C85.0564 72.33 96 61.4152 96 48s-10.944 -24.33 -24.3952 -24.33ZM23.9096 31.404c1.972 0.0496 4.08 0.9984 5.092 2.4912 1.4692 1.8368 1.9112 4.2672 3.5776 5.9728 2.2416 2.4472 4.796 4.602 6.8644 7.208 1.9568 2.3816 3.3544 5.1748 4.5744 7.99 0.4976 0.934 0.5028 2.0808 1.24 2.8788 0.3632 0.4816 2.1384 1.7932 1.7532 2.258 0.222 0.4816 1.8808 1.144 1.3052 1.6108 -0.7776 0.16 -1.6516 0.1904 -2.2464 -0.4296 -0.2196 0.504 -0.732 0.2384 -1.1276 0.1728a16 16 0 0 0 -0.1 0.2944c-1.3152 0.0876 -2.3016 -1.2504 -2.928 -2.26 -1.2444 -0.672 -2.6568 -1.0808 -3.928 -1.784 -0.0728 1.158 0.1808 2.594 -0.924 3.3412 -0.056 2.226 3.3744 0.2624 3.6888 1.9216 -0.244 0.0268 -0.5144 -0.038 -0.7096 0.1492 -0.8956 0.8688 -1.922 -0.658 -2.954 -0.028 -1.3856 0.696 -1.5232 1.2644 -3.2384 1.408 -0.0948 -0.1436 -0.0572 -0.2368 0.0236 -0.3244 0.4828 -0.5596 0.518 -1.2184 1.3424 -1.4572 -0.8488 -0.1336 -1.5596 0.3332 -2.2744 0.7028 -0.9292 0.38 -0.9216 -0.8564 -2.3512 0.0656 -0.1584 -0.1288 -0.0832 -0.246 0.0072 -0.3456 0.3632 -0.4428 0.8408 -0.508 1.38 -0.4832 -2.652 -1.4744 -3.9004 1.8028 -5.1252 0.1728 -0.368 0.0972 -0.506 0.4272 -0.738 0.6608 -0.2 -0.2192 -0.0492 -0.4848 -0.0396 -0.7428 -0.2392 -0.112 -0.5424 -0.164 -0.4716 -0.5464 -0.4684 -0.158 -0.7952 0.118 -1.144 0.3808 -0.3148 -0.2432 0.2128 -0.5968 0.3104 -0.85 0.2808 -0.4864 0.92 -0.1 1.2444 -0.4504 0.9224 -0.5232 2.208 0.3256 3.262 0.182 0.812 0.102 1.8176 -0.73 1.4104 -1.56 -0.8684 -1.1068 -0.716 -2.5544 -0.7356 -3.878 -0.1072 -0.7716 -1.964 -1.7528 -2.5008 -2.5848 -0.6636 -0.7492 -1.18 -1.6188 -1.6972 -2.4728 -1.8664 -3.6032 -1.2792 -8.2336 -3.6308 -11.5788 -1.064 0.5864 -2.45 0.3096 -3.3672 -0.476 -0.4952 0.45 -0.5168 1.0392 -0.556 1.6644 -1.188 -1.1848 -1.0372 -3.4236 -0.088 -4.742 0.3876 -0.5208 0.8508 -0.9492 1.368 -1.3264 0.1168 -0.0852 0.1564 -0.1676 0.154 -0.2988 0.4696 -2.1068 2.3056 -2.9564 4.2776 -2.9068m49.6284 1.84c2.23 0 4.3224 0.8636 5.896 2.4328s2.44 3.658 2.44 5.8816c0 2.224 -0.8668 4.312 -2.44 5.8792v0.0024l-3.608 3.598a8.32 8.32 0 0 1 -3.4388 2.0664l-0.0656 0.0188 -0.0232 0.0656a8.2 8.2 0 0 1 -1.896 2.9232l-3.6072 3.598c-1.5736 1.5696 -3.668 2.4332 -5.898 2.4332s-4.3224 -0.864 -5.896 -2.4332c-3.252 -3.2428 -3.252 -8.5176 0 -11.7608l3.6076 -3.598a8.224 8.224 0 0 1 3.432 -2.0572l0.068 -0.0212 0.0232 -0.0632a8.28 8.28 0 0 1 1.9008 -2.9348l3.6072 -3.598c1.5736 -1.5696 3.6684 -2.4332 5.898 -2.4332zm0 3.586a4.72 4.72 0 0 0 -3.3552 1.3848l-3.6072 3.598a4.724 4.724 0 0 0 -1.3708 3.7008l0.0212 0.2288c0.1292 1.0608 0.596 2.0176 1.3496 2.7668 0.52 0.5184 1.0932 0.8456 1.7884 1.0744a3.6 3.6 0 0 1 0.056 0.6328 3.536 3.536 0 0 1 -1.0436 2.5216l-0.2216 0.2216c-1.2052 -0.4112 -2.21 -1.012 -3.1176 -1.9168a8.24 8.24 0 0 1 -2.3044 -4.3872l-0.0396 -0.2312 -0.1844 0.1472a4.4 4.4 0 0 0 -0.3504 0.3176l-3.6096 3.598c-1.8492 1.844 -1.8492 4.848 0 6.692 0.9244 0.922 2.14 1.384 3.3576 1.3844 1.2172 0 2.4308 -0.4624 3.3552 -1.3848l3.6076 -3.598c1.8492 -1.844 1.8492 -4.8452 0 -6.692a4.68 4.68 0 0 0 -1.7468 -1.0996 4 4 0 0 1 -0.056 -0.6444c0 -1.0364 0.4092 -2.02 1.1604 -2.7692 1.2076 0.4112 2.28 1.0776 3.1848 1.98 1.2028 1.1996 1.9976 2.716 2.3024 4.3872l0.042 0.2312 0.182 -0.1492a4.4 4.4 0 0 0 0.3548 -0.3176l3.608 -3.5984c1.8488 -1.844 1.8512 -4.8496 0 -6.694a4.72 4.72 0 0 0 -3.358 -1.3848Zm-39.892 20.6268 -0.0024 0.0024c-0.3172 1.2312 -0.4192 3.3272 -2.024 3.388 -0.132 0.7104 0.4912 0.978 1.062 0.7496 0.564 -0.258 0.8324 0.2032 1.0228 0.6628 0.8708 0.1268 2.1576 -0.29 2.2064 -1.3192 -1.3 -0.7468 -1.7012 -2.1672 -2.2648 -3.4836" fill="#ffffff" stroke-width="4"></path>
</svg>