<svg xmlns="http://www.w3.org/2000/svg" fill="none" viewBox="0 0 96 96" id="Mysql-Icon--Streamline-Svg-Logos" height="96" width="96">
  <desc>
    Mysql Icon Streamline Icon: https://streamlinehq.com
  </desc>
  <path fill="#00546b" d="M87.584 73.2302c-5.1145 -0.1275 -9.0784 0.3842 -12.403 1.7904 -0.9589 0.3835 -2.4935 0.3839 -2.6214 1.5983 0.5118 0.5118 0.5755 1.3428 1.0231 2.0459 0.7677 1.2783 2.1097 3.0049 3.3246 3.9001 1.3424 1.0228 2.6852 2.0455 4.0914 2.9407 2.4935 1.5346 5.3067 2.4294 7.736 3.9639 1.407 0.8944 2.8128 2.0459 4.2194 3.0049 0.7035 0.511 1.1507 1.3424 2.0459 1.6621v-0.1918c-0.4476 -0.5755 -0.5755 -1.4065 -1.0227 -2.0459 -0.639 -0.6393 -1.2787 -1.2148 -1.918 -1.8542 -1.8542 -2.4931 -4.1556 -4.6669 -6.6491 -6.4569 -2.0455 -1.4066 -6.5211 -3.3246 -7.3522 -5.6901 0 0 -0.0642 -0.0638 -0.1279 -0.1276 1.4065 -0.1279 3.0686 -0.6393 4.4114 -1.0231 2.1739 -0.5756 4.1556 -0.4476 6.3932 -1.0228 1.0228 -0.2559 2.046 -0.5755 3.0687 -0.8952v-0.5751c-1.1503 -1.1511 -1.9817 -2.6853 -3.1966 -3.7722 -3.2604 -2.8136 -6.8408 -5.5622 -10.5488 -7.8636 -1.9821 -1.2786 -4.5394 -2.1101 -6.6491 -3.1966 -0.7668 -0.3842 -2.0459 -0.5755 -2.4931 -1.2149 -1.1511 -1.4065 -1.7904 -3.2603 -2.6215 -4.9228 -1.8533 -3.5167 -3.6442 -7.416 -5.2425 -11.124 -1.1502 -2.4935 -1.8537 -4.987 -3.2603 -7.2884 -6.5849 -10.8684 -13.7454 -17.4533 -24.7418 -23.9107 -2.3656 -1.34242 -5.1783 -1.91797 -8.1832 -2.62106 -1.5979 -0.06417 -3.1966 -0.19171 -4.7949 -0.25589 -1.0228 -0.44761 -2.0459 -1.66207 -2.9412 -2.23762 -3.6433 -2.3018 -13.04186 -7.28802 -15.72708 -0.70309C-0.322924 9.29853 3.96061 13.3899 5.43095 15.5c1.08733 1.4704 2.49351 3.1324 3.26078 4.7949 0.4476 1.0861 0.57514 2.2376 1.02275 3.3883 1.02312 2.8124 1.98172 5.9456 3.32452 8.5671 0.7035 1.3424 1.4704 2.749 2.3656 3.9635 0.5114 0.703 1.4062 1.0231 1.5983 2.1738 -0.8948 1.2786 -0.959 3.1966 -1.4708 4.7949 -2.3014 7.2243 -1.4062 16.1748 1.8542 21.481 1.0228 1.5979 3.4525 5.115 6.7129 3.7722 2.8769 -1.1507 2.2376 -4.7949 3.0687 -7.9915 0.1921 -0.7677 0.0641 -1.2787 0.4476 -1.7901 0.0003 0.0638 0 0.128 0 0.128 0.8952 1.79 1.79 3.5163 2.621 5.3063 1.9822 3.1324 5.4342 6.3932 8.3112 8.567 1.5349 1.1503 2.7494 3.1325 4.6673 3.836v-0.1922h-0.1279c-0.3839 -0.5755 -0.959 -0.831 -1.4704 -1.2786 -1.1507 -1.1507 -2.4297 -2.5573 -3.3245 -3.8359 -2.6848 -3.5805 -5.0508 -7.5439 -7.1605 -11.6357 -1.0227 -1.9818 -1.9179 -4.1556 -2.749 -6.1373 -0.3838 -0.7677 -0.3838 -1.918 -1.0231 -2.3014 -0.959 1.4061 -2.3652 2.621 -3.0687 4.3473 -1.214 2.749 -1.3424 6.1373 -1.79 9.6535 -0.2555 0.0642 -0.128 0 -0.2559 0.128 -2.0455 -0.5118 -2.749 -2.6211 -3.5163 -4.4115 -1.9179 -4.539 -2.2376 -11.8274 -0.5751 -17.0695 0.4476 -1.3428 2.3655 -5.5622 1.5983 -6.8408 -0.3834 -1.2149 -1.6625 -1.918 -2.3656 -2.877 -0.831 -1.2149 -1.7262 -2.749 -2.3014 -4.0918 -1.5345 -3.58 -2.3018 -7.5439 -3.9638 -11.1243 -0.7673 -1.6625 -2.10971 -3.3884 -3.19664 -4.9225C6.71 12.1755 5.36718 10.9606 4.40818 8.91468c-0.31925 -0.70309 -0.76726 -1.85379 -0.25589 -2.62106 0.12795 -0.51137 0.38343 -0.70308 0.89521 -0.83103 0.83104 -0.7035 3.19661 0.19171 4.02763 0.57514 2.36557 0.95858 4.34727 1.8542 6.32947 3.19661 0.8948 0.63932 1.8537 1.85416 3.0044 2.17386h1.3429c2.0459 0.4472 4.3473 0.1279 6.2652 0.7031 3.3887 1.0865 6.457 2.6852 9.2064 4.4115 8.3754 5.3062 15.2795 12.8505 19.9469 21.8648 0.7673 1.47 1.0865 2.8132 1.79 4.3473 1.3428 3.1329 3.0049 6.3295 4.3473 9.3981 1.3424 3.0045 2.6211 6.0736 4.539 8.5671 0.9594 1.342 4.7949 2.0455 6.5212 2.749 1.2786 0.5751 3.2608 1.0869 4.4114 1.79 2.1735 1.342 4.3474 2.8769 6.3933 4.3473 1.0231 0.7669 4.2193 2.3656 4.4114 3.6438Z" stroke-width="1"></path>
  <path fill="#00546b" d="M22.372 17.6729c-1.0869 0 -1.8538 0.1283 -2.621 0.32l0 0.128h0.1279c0.5118 1.0227 1.4062 1.7262 2.0455 2.621 0.5118 1.0228 0.959 2.0459 1.4708 3.0691 0.0638 -0.0642 0.1275 -0.128 0.1275 -0.128 0.8956 -0.6397 1.3428 -1.6624 1.3428 -3.1966 -0.3838 -0.4476 -0.4476 -0.8952 -0.7672 -1.3428 -0.3835 -0.6397 -1.2149 -0.959 -1.7263 -1.4707Z" stroke-width="1"></path>
</svg>